<svg xmlns="http://www.w3.org/2000/svg" width="1139.5175" height="148.3799" viewBox="0 0 1139.5175 148.3799"><title>logo</title><g id="Livello_2" data-name="Livello 2"><g id="Livello_1-2" data-name="Livello 1"><path d="M0,32.5325H26.554V5.9785H0Zm79.668,0H185.889V5.9795H79.668s-26.554,0-26.554,26.553V85.64H159.335V112.2H26.554V59.0865H0V112.2s0,26.554,26.554,26.554H159.335s26.554,0,26.554-26.554V59.0865H79.668Zm132.775,0H185.889v26.554h26.554Z" fill="#fff"/><path d="M318.6689,32.5292v26.56h26.554v-26.56s0-26.554-26.554-26.554H212.4469v26.554Zm0,53.114V59.0892H212.4469v53.108s0,26.56,26.554,26.56h106.222V85.6432h-26.554v26.554h-79.668V85.6432Z" fill="#fff"/><text transform="translate(394.5895 35.3391)" font-size="42.5766" fill="#fff" font-family="CeraBasic-Black, Cera Basic">INTERRELIGIO<tspan x="286.6631" y="0" letter-spacing="-0.005em">U</tspan><tspan x="316.5947" y="0">S</tspan><tspan x="0" y="51.0918">STUDIES</tspan><tspan x="0" y="102.1836" letter-spacing="-0.018em">A</tspan><tspan x="27.292" y="102.1836" letter-spacing="-0.01em">C</tspan><tspan x="57.6489" y="102.1836">ADEM</tspan><tspan x="173.7959" y="102.1836" letter-spacing="-0.04em">Y</tspan></text><text transform="translate(816.0687 35.3389)" opacity="0.67" font-size="42.5766" fill="#fff" font-family="CeraBasic-Black, Cera Basic"><tspan letter-spacing="-0.018em">A</tspan><tspan x="27.292" y="0" letter-spacing="-0.005em">C</tspan><tspan x="57.8618" y="0" letter-spacing="-0.01em">C</tspan><tspan x="88.2188" y="0">ADEMI</tspan><tspan x="217.3086" y="0" letter-spacing="-0.05em">A</tspan><tspan x="243.2383" y="0" letter-spacing="0em"> </tspan><tspan x="0" y="51.0918">DI STUDI</tspan><tspan x="0" y="102.1836">INTERRELIGIOSI</tspan></text><line x1="772.5718" y1="5.9752" x2="772.5718" y2="138.7572" fill="#fff" stroke="#fff" stroke-miterlimit="10" stroke-width="5" opacity="0.67"/></g></g></svg>